# xmcd CD database file
#
# Track frame offsets:
#	150
#	11958
#	24585
#	40753
#	53055
#	68413
#	81303
#	103048
#	118158
#	131803
#
# Disc length: 1926 seconds
#
# Revision: 0
# Processed by: cddbd v1.4PL0 Copyright (c) Steve Scherf et al.
# Submitted via: CDex 1.40Beta9
#
DISCID=8407840a
DTITLE=Annette - A Love Like Ours
DYEAR=1993
DGENRE=Country
TTITLE0=A Chance I've Gotta Take
TTITLE1=It Takes Two Hearts
TTITLE2=I'll Hold You To It
TTITLE3=Color Coated Nails
TTITLE4=I'm Not That Good At Goodbye
TTITLE5=I Wish I Didn't Need It
TTITLE6=A Love Like Ours
TTITLE7=That's The Reason God Created Men
TTITLE8=In My Mind's Eye
TTITLE9=Grass Is Greener
EXTD=YEAR: 1993 ID3G: 2
EXTT0=
EXTT1=
EXTT2=
EXTT3=
EXTT4=
EXTT5=
EXTT6=
EXTT7=
EXTT8=
EXTT9=
PLAYORDER=
